<svg width="325" height="65" viewBox="0 0 120 24" fill="none" xmlns="http://www.w3.org/2000/svg">
  <path d="M3.15709 8.56448V0.428089H0V23.5897H3.15709V14.2342C3.15709 12.4068 3.58027 11.0541 4.32791 10.1604C5.07248 9.27037 6.15432 8.81705 7.5148 8.81705C9.12441 8.81705 10.0063 9.36883 10.4983 10.2124C11.0002 11.0729 11.1127 12.2619 11.1127 13.5714V23.5897H14.2698V12.7191C14.2698 10.764 13.8958 9.09449 12.9824 7.91146C12.0638 6.72165 10.6177 6.04673 8.52792 6.04673C7.06723 6.04673 5.91119 6.35899 4.99301 6.88152C4.22282 7.31982 3.62525 7.90308 3.15709 8.56448Z" fill="currentColor"></path>
  <title>Helix</title>
  <path fill-rule="evenodd" clip-rule="evenodd" d="M19.8825 16.0455H32.9762L32.9845 15.9161C33.1604 13.1898 32.4734 10.7238 31.0715 8.9365C29.6676 7.14661 27.5535 6.04672 24.9001 6.04672C22.5386 6.04672 20.4363 6.91214 18.9244 8.46777C17.4123 10.0235 16.4988 12.2612 16.4988 14.9918C16.4988 17.5279 17.2509 19.7805 18.6947 21.401C20.1404 23.0235 22.2689 24 24.9951 24C29.2019 24 31.9821 21.5303 32.7587 18.5622L32.804 18.3888H29.5588L29.5226 18.4718C29.1671 19.2887 28.6525 19.9676 27.9236 20.4432C27.1945 20.9189 26.2406 21.1981 24.9951 21.1981C23.7758 21.1981 22.5196 20.7671 21.5577 19.8925C20.6235 19.043 19.96 17.7688 19.8825 16.0455ZM24.9001 8.78548C27.8215 8.78548 29.5069 11.0162 29.6618 13.3068H19.9213C20.0712 11.7139 20.6946 10.5982 21.5687 9.87437C22.4724 9.12615 23.6577 8.78548 24.9001 8.78548Z" fill="currentColor"></path>
  <path d="M51.492 17.8265L48.0278 23.585L51.5831 23.585L55.844 16.4087L60.1543 23.585H63.761L60.2354 17.8011C58.24 14.5278 53.4681 14.5417 51.492 17.8265Z" fill="currentColor"></path>
  <path d="M60.2968 12.1216L63.761 6.36312L60.2057 6.36311L55.9447 13.5395L51.6345 6.36311L48.0278 6.36311L51.5534 12.147C53.5487 15.4204 58.3207 15.4065 60.2968 12.1216Z" fill="currentColor"></path>
  <path d="M45.4056 6.36311H42.2313V23.585H45.4056V6.36311Z" fill="currentColor"></path>
  <path d="M43.9001 4.60916C45.1756 4.60916 46.2108 3.57805 46.2108 2.30458C46.2108 1.03111 45.1756 0 43.9001 0C42.6246 0 41.5893 1.03111 41.5893 2.30458C41.5893 3.57805 42.6246 4.60916 43.9001 4.60916Z" fill="currentColor"></path>
  <path d="M38.5904 23.5897V0.428089H35.4333V23.5897H38.5904Z" fill="currentColor"></path>
</svg>