<svg height="65" viewBox="0 0 120 24" fill="none" xmlns="http://www.w3.org/2000/svg">
  <path d="M3.15709 8.56448V0.428089H0V23.5897H3.15709V14.2342C3.15709 12.4068 3.58027 11.0541 4.32791 10.1604C5.07248 9.27037 6.15432 8.81705 7.5148 8.81705C9.12441 8.81705 10.0063 9.36883 10.4983 10.2124C11.0002 11.0729 11.1127 12.2619 11.1127 13.5714V23.5897H14.2698V12.7191C14.2698 10.764 13.8958 9.09449 12.9824 7.91146C12.0638 6.72165 10.6177 6.04673 8.52792 6.04673C7.06723 6.04673 5.91119 6.35899 4.99301 6.88152C4.22282 7.31982 3.62525 7.90308 3.15709 8.56448Z" fill="currentColor"></path>
  <title>Helix by Q2</title>
  <path fill-rule="evenodd" clip-rule="evenodd" d="M19.8825 16.0455H32.9762L32.9845 15.9161C33.1604 13.1898 32.4734 10.7238 31.0715 8.9365C29.6676 7.14661 27.5535 6.04672 24.9001 6.04672C22.5386 6.04672 20.4363 6.91214 18.9244 8.46777C17.4123 10.0235 16.4988 12.2612 16.4988 14.9918C16.4988 17.5279 17.2509 19.7805 18.6947 21.401C20.1404 23.0235 22.2689 24 24.9951 24C29.2019 24 31.9821 21.5303 32.7587 18.5622L32.804 18.3888H29.5588L29.5226 18.4718C29.1671 19.2887 28.6525 19.9676 27.9236 20.4432C27.1945 20.9189 26.2406 21.1981 24.9951 21.1981C23.7758 21.1981 22.5196 20.7671 21.5577 19.8925C20.6235 19.043 19.96 17.7688 19.8825 16.0455ZM24.9001 8.78548C27.8215 8.78548 29.5069 11.0162 29.6618 13.3068H19.9213C20.0712 11.7139 20.6946 10.5982 21.5687 9.87437C22.4724 9.12615 23.6577 8.78548 24.9001 8.78548Z" fill="currentColor"></path>
  <path d="M51.492 17.8265L48.0278 23.585L51.5831 23.585L55.844 16.4087L60.1543 23.585H63.761L60.2354 17.8011C58.24 14.5278 53.4681 14.5417 51.492 17.8265Z" fill="currentColor"></path>
  <path d="M60.2968 12.1216L63.761 6.36312L60.2057 6.36311L55.9447 13.5395L51.6345 6.36311L48.0278 6.36311L51.5534 12.147C53.5487 15.4204 58.3207 15.4065 60.2968 12.1216Z" fill="currentColor"></path>
  <path d="M45.4056 6.36311H42.2313V23.585H45.4056V6.36311Z" fill="currentColor"></path>
  <path d="M43.9001 4.60916C45.1756 4.60916 46.2108 3.57805 46.2108 2.30458C46.2108 1.03111 45.1756 0 43.9001 0C42.6246 0 41.5893 1.03111 41.5893 2.30458C41.5893 3.57805 42.6246 4.60916 43.9001 4.60916Z" fill="currentColor"></path>
  <path d="M38.5904 23.5897V0.428089H35.4333V23.5897H38.5904Z" fill="currentColor"></path>
  <path d="M101.201 20.5346C104.374 16.9426 103.979 11.5073 100.324 8.38912C96.6688 5.27093 91.1376 5.65855 87.9644 9.2505C84.7912 12.8424 85.1856 18.2778 88.841 21.3959C90.1471 22.5157 91.7687 23.2221 93.4868 23.4374V20.414C90.3837 19.8196 88.3501 16.8737 88.9549 13.8158C89.5597 10.7579 92.5576 8.76812 95.6695 9.36248C98.7813 9.95683 100.806 12.9027 100.201 15.9606C99.7543 18.2175 97.9661 19.9833 95.6695 20.414V23.5063H104.444V20.5346H101.201Z" fill="currentColor"></path>
  <path d="M105.527 20.5363L112.216 14.1104C112.409 13.9209 112.61 13.7142 112.821 13.4988C113.031 13.2835 113.224 13.0595 113.39 12.8183C113.566 12.5858 113.706 12.336 113.829 12.0689C113.943 11.8105 113.995 11.5263 113.995 11.242C114.004 10.9233 113.934 10.596 113.785 10.3117C113.653 10.0447 113.469 9.81212 113.241 9.614C113.005 9.41588 112.742 9.26945 112.452 9.1747C112.146 9.07133 111.812 9.01103 111.488 9.01965C110.831 8.99381 110.182 9.21776 109.682 9.63984C109.2 10.0791 108.893 10.6735 108.832 11.3109L105.764 11.0697C105.808 10.3462 106.01 9.64845 106.334 9.00242C106.632 8.4253 107.053 7.91708 107.561 7.50362C108.078 7.09877 108.674 6.78868 109.314 6.59917C110.016 6.38383 110.743 6.28046 111.479 6.28908C112.216 6.28908 112.952 6.38383 113.662 6.59056C114.302 6.77145 114.898 7.07293 115.424 7.47778C115.932 7.87401 116.344 8.39084 116.616 8.97658C116.923 9.64845 117.072 10.372 117.054 11.1042C117.081 12.0775 116.826 13.0337 116.309 13.8692C115.775 14.6875 115.135 15.4283 114.398 16.083L109.367 20.5449H117.054V23.5167H105.527V20.5363Z" fill="currentColor"></path>
  <path d="M72.2754 12.4482C72.971 12.4482 73.4948 12.693 73.8469 13.1827C74.2076 13.6723 74.3879 14.2908 74.3879 15.0382C74.3879 15.7083 74.2376 16.3612 73.9371 16.9969C73.6365 17.6326 73.2157 18.1523 72.6747 18.5561C72.1337 18.9513 71.5154 19.1488 70.8199 19.1488C70.296 19.1488 69.8151 19.0372 69.3772 18.8138C68.9478 18.5819 68.5786 18.2683 68.2694 17.8731L69.9053 10.8761C69.9225 10.7902 69.9311 10.7257 69.9311 10.6828C69.9311 10.5367 69.8795 10.4208 69.7765 10.3349C69.6734 10.249 69.536 10.206 69.3643 10.206H69.0036L69.1196 9.72922L71.1805 9.25244L70.2402 13.3502C70.8585 12.7488 71.5369 12.4482 72.2754 12.4482ZM70.7683 18.7107C71.2922 18.7107 71.7516 18.5346 72.1466 18.1824C72.5502 17.8216 72.8551 17.3706 73.0611 16.8294C73.2758 16.2882 73.3832 15.747 73.3832 15.2057C73.3832 14.6044 73.2415 14.1147 72.9581 13.7367C72.6833 13.3588 72.2668 13.1698 71.7086 13.1698C71.4081 13.1698 71.1204 13.2256 70.8456 13.3373C70.5708 13.449 70.3304 13.5993 70.1243 13.7883L69.2097 17.7185C69.3214 18.002 69.5103 18.2382 69.7765 18.4272C70.0427 18.6162 70.3733 18.7107 70.7683 18.7107Z" fill="currentColor"></path>
  <path d="M79.9036 12.4482C80.4102 12.7059 80.6636 13.2342 80.6636 14.0331C80.6636 14.9008 80.3802 15.8887 79.8134 16.9969C79.2467 18.0965 78.4996 19.0329 77.5721 19.806C76.6447 20.5878 75.67 20.9787 74.6481 20.9787C74.4249 20.9787 74.1887 20.9572 73.9397 20.9142C73.6821 20.8713 73.4502 20.8111 73.2441 20.7338L73.4631 19.8189C73.6863 19.9134 73.9354 19.9821 74.2102 20.0251C74.485 20.068 74.7469 20.0895 74.9959 20.0895C75.8547 20.0895 76.6876 19.776 77.4948 19.1488L75.9491 13.9043C75.8203 13.4919 75.5455 13.2857 75.1247 13.2857H74.8671L74.9702 12.7961L76.5159 12.4482L78.1518 18.5948C78.6584 18.0707 79.062 17.4737 79.3626 16.8036C79.6631 16.1335 79.8134 15.4764 79.8134 14.8321C79.8134 14.0761 79.5773 13.479 79.105 13.0409L79.9036 12.4482Z" fill="currentColor"></path>
</svg>