<svg xmlns="http://www.w3.org/2000/svg" xml:space="preserve" class="Navigation--logo" viewBox="0 0 35.63 19.99" height="65">
  <path d="M17.54 16.54c3.62-4.17 3.17-10.48-1-14.1s-10.48-3.17-14.1 1-3.17 10.48 1 14.1a9.982 9.982 0 0 0 5.3 2.37V16.4c-3.54-.69-5.86-4.11-5.17-7.66s4.11-5.86 7.66-5.17 5.86 4.11 5.17 7.66a6.518 6.518 0 0 1-5.17 5.17v3.59h10.01v-3.45h-3.7zM22.476 16.542l7.63-7.46c.22-.22.45-.46.69-.71.24-.25.46-.51.65-.79.2-.27.36-.56.5-.87.13-.3.19-.63.19-.96.01-.37-.07-.75-.24-1.08a2.576 2.576 0 0 0-1.52-1.32c-.35-.12-.73-.19-1.1-.18-.75-.03-1.49.23-2.06.72-.55.51-.9 1.2-.97 1.94l-3.5-.28c.05-.84.28-1.65.65-2.4.34-.67.82-1.26 1.4-1.74.59-.47 1.27-.83 2-1.05.8-.25 1.63-.37 2.47-.36.84 0 1.68.11 2.49.35.73.21 1.41.56 2.01 1.03.58.46 1.05 1.06 1.36 1.74.35.78.52 1.62.5 2.47a5.86 5.86 0 0 1-.85 3.21c-.61.95-1.34 1.81-2.18 2.57l-5.74 5.18h8.77v3.45h-13.15v-3.46z"/>
</svg>
